<svg width="642" height="212" viewBox="0 0 642 212" fill="none" xmlns="http://www.w3.org/2000/svg">
<path d="M541.26 113H577.71L617.31 189.8H619.56V113H641.16V212H604.71L564.81 134.45H562.71V212H541.26V113Z" fill="white"/>
<path d="M534.034 113V212H511.084V113H534.034Z" fill="white"/>
<path d="M503.904 195.05V212H422.754V113H503.304V129.95H445.104V153.5H494.154V170.6H445.104V195.05H503.904Z" fill="white"/>
<path d="M366.442 113V194.9H415.492V212H344.092V113H366.442Z" fill="white"/>
<path d="M262.581 113V158.9H264.831L306.081 113H334.881L291.981 160.1L336.831 212H309.231L276.381 174.5L262.581 189.2V212H240.381V113H262.581Z" fill="white"/>
<path d="M186.179 195.05V212H105.029V113H185.579V129.95H127.379V153.5H176.429V170.6H127.379V195.05H186.179Z" fill="white"/>
<path d="M49.5 113C60.4 113 69.45 115.25 76.65 119.75C83.85 124.15 89.15 130.05 92.55 137.45C96.05 144.85 97.8 153.1 97.8 162.2C97.8 171.4 96.05 179.75 92.55 187.25C89.15 194.75 83.8 200.75 76.5 205.25C69.3 209.75 60.3 212 49.5 212H0V113H49.5ZM44.4 195.05C55.1 195.05 62.75 192.3 67.35 186.8C71.95 181.3 74.25 173.1 74.25 162.2C74.25 151.3 71.9 143.2 67.2 137.9C62.6 132.6 55 129.95 44.4 129.95H22.35V195.05H44.4Z" fill="white"/>
<path d="M332.574 54.9L367.824 0H375.324L335.724 60V99H329.274V60L289.824 0H297.624L332.574 54.9Z" fill="white"/>
<path d="M173.223 0H185.223L226.473 94.05L267.573 0H279.273V99H272.823V10.05H270.273L231.273 99H221.223L181.923 9.15H179.823V99H173.223V0Z" fill="white"/>
<path d="M162.651 93.6V99H88.7012V0H162.201V5.4H95.3012V44.4H153.051V49.8H95.3012V93.6H162.651Z" fill="white"/>
<path d="M3.30078 0H48.9008C59.0008 0 66.4008 2.2 71.1008 6.6C75.8008 10.9 78.1508 17 78.1508 24.9C78.1508 30.7 76.6008 35.75 73.5008 40.05C70.4008 44.35 66.3008 47.3 61.2008 48.9V50.25C70.4008 52.95 75.0008 59.2 75.0008 69C75.0008 70.4 74.9508 71.45 74.8508 72.15C74.4508 76.05 74.2508 79.95 74.2508 83.85C74.2508 88.85 74.5508 93.9 75.1508 99H68.5508C68.0508 93.8 67.8008 89 67.8008 84.6C67.8008 80.5 68.0008 76.65 68.4008 73.05C68.5008 72.35 68.5508 71.35 68.5508 70.05C68.5508 64.05 66.5008 59.55 62.4008 56.55C58.4008 53.55 52.6508 52.05 45.1508 52.05H9.90078V99H3.30078V0ZM46.5008 46.8C54.8008 46.8 60.9508 44.95 64.9508 41.25C69.0508 37.55 71.1008 32.4 71.1008 25.8C71.1008 18.5 69.2508 13.3 65.5508 10.2C61.8508 7 56.0008 5.4 48.0008 5.4H9.90078V46.8H46.5008Z" fill="white"/>
</svg>
